<svg width="23" height="24" viewBox="0 0 23 24" fill="none" xmlns="http://www.w3.org/2000/svg">
<path d="M17.2994 11.2813C18.1604 11.2813 18.8784 11.2812 19.4484 11.3578C20.0501 11.4387 20.5933 11.6167 21.0297 12.0532C21.4662 12.4896 21.6442 13.0328 21.725 13.6344C21.8017 14.2045 21.8016 14.9224 21.8016 15.7835V15.8832C21.8016 16.7442 21.8017 17.4622 21.725 18.0322C21.6442 18.6339 21.4662 19.1771 21.0297 19.6135C20.5933 20.05 20.0501 20.228 19.4484 20.3088C18.8784 20.3855 18.1604 20.3854 17.2994 20.3854H17.1997C16.3386 20.3854 15.6207 20.3855 15.0506 20.3088C14.449 20.228 13.9058 20.05 13.4694 19.6135C13.0329 19.1771 12.8549 18.6339 12.774 18.0322C12.6974 17.4622 12.6974 16.7442 12.6974 15.8832V15.7835C12.6974 14.9224 12.6974 14.2045 12.774 13.6344C12.8549 13.0328 13.0329 12.4896 13.4694 12.0532C13.9058 11.6167 14.449 11.4387 15.0506 11.3578C15.6207 11.2812 16.3386 11.2813 17.1997 11.2813H17.2994Z" fill="#0C0C0C"/>
<path fill-rule="evenodd" clip-rule="evenodd" d="M20.3207 4.28772C20.4782 4.79302 20.1962 5.33031 19.6909 5.48778C16.7128 6.4159 14.6141 9.05313 14.6141 12.1079V16.0729C14.6141 16.6022 14.1851 17.0312 13.6558 17.0312C13.1265 17.0312 12.6974 16.6022 12.6974 16.0729V12.1079C12.6974 8.13431 15.4206 4.81099 19.1207 3.65791C19.6259 3.50044 20.1632 3.78242 20.3207 4.28772Z" fill="#0C0C0C"/>
<path d="M5.7994 11.2813C6.66043 11.2813 7.37842 11.2812 7.94841 11.3578C8.55005 11.4387 9.09323 11.6167 9.52973 12.0532C9.9662 12.4896 10.1442 13.0328 10.225 13.6344C10.3017 14.2045 10.3016 14.9224 10.3016 15.7835V15.8832C10.3016 16.7442 10.3017 17.4622 10.225 18.0322C10.1442 18.6339 9.9662 19.1771 9.52973 19.6135C9.09323 20.05 8.55005 20.228 7.94841 20.3088C7.37842 20.3855 6.66043 20.3854 5.7994 20.3854H5.69971C4.83868 20.3854 4.12065 20.3855 3.55066 20.3088C2.94902 20.228 2.40584 20.05 1.96935 19.6135C1.53286 19.1771 1.35492 18.6339 1.27403 18.0322C1.1974 17.4622 1.19742 16.7442 1.19745 15.8832V15.7835C1.19742 14.9224 1.1974 14.2045 1.27403 13.6344C1.35492 13.0328 1.53286 12.4896 1.96935 12.0532C2.40584 11.6167 2.94902 11.4387 3.55066 11.3578C4.12065 11.2812 4.83865 11.2813 5.69967 11.2813H5.7994Z" fill="#0C0C0C"/>
<path fill-rule="evenodd" clip-rule="evenodd" d="M8.82071 4.28772C8.97819 4.79302 8.69622 5.33031 8.19092 5.48778C5.21273 6.4159 3.11412 9.05313 3.11412 12.1079V16.0729C3.11412 16.6022 2.68505 17.0312 2.15578 17.0312C1.62651 17.0312 1.19745 16.6022 1.19745 16.0729V12.1079C1.19745 8.13431 3.92061 4.81099 7.62065 3.65791C8.12596 3.50044 8.66324 3.78242 8.82071 4.28772Z" fill="#0C0C0C"/>
</svg>
