<svg width="316" height="281" viewBox="0 0 316 281" fill="none" xmlns="http://www.w3.org/2000/svg">
<path fill-rule="evenodd" clip-rule="evenodd" d="M297.883 164.754L166.442 175.228C144.494 176.977 126.198 192.72 121.194 214.161L108.484 268.624C107.024 274.878 112.072 280.745 118.475 280.235L249.916 269.761C271.864 268.012 290.16 252.269 295.164 230.828L307.874 176.365C309.334 170.11 304.286 164.244 297.883 164.754Z" fill="white"/>
<g filter="url(#filter0_di_3026_2740)">
<path d="M125.626 213.833C130.004 195.072 146.013 181.297 165.217 179.767L296.659 169.292C298.793 169.122 300.476 171.078 299.989 173.163L287.279 227.625C282.901 246.386 266.892 260.161 247.687 261.691L116.246 272.166C114.112 272.336 112.429 270.38 112.916 268.295L125.626 213.833Z" fill="white"/>
<path d="M126.549 214.048C130.834 195.69 146.5 182.21 165.293 180.712L296.734 170.238C298.228 170.119 299.406 171.488 299.066 172.947L286.355 227.409C282.071 245.768 266.405 259.248 247.612 260.746L116.171 271.22C114.677 271.339 113.499 269.97 113.839 268.511L126.549 214.048Z" stroke="black" stroke-width="1.89714"/>
</g>
<path fill-rule="evenodd" clip-rule="evenodd" d="M294.765 186.571C290.49 186.912 287.222 185.88 284.955 183.948C282.689 182.017 281.153 178.953 280.812 174.678C281.153 178.953 280.121 182.221 278.189 184.488C276.257 186.754 273.193 188.29 268.919 188.631C273.193 188.29 276.462 189.322 278.728 191.254C280.995 193.186 282.531 196.249 282.872 200.524C282.531 196.249 283.562 192.981 285.494 190.714C287.426 188.448 290.49 186.912 294.765 186.571Z" fill="#24B6ED"/>
<path fill-rule="evenodd" clip-rule="evenodd" d="M145.372 254.302C141.098 254.643 137.829 253.611 135.563 251.679C133.296 249.748 131.76 246.684 131.42 242.409C131.76 246.684 130.729 249.952 128.797 252.219C126.865 254.485 123.801 256.021 119.527 256.362C123.801 256.021 127.07 257.053 129.336 258.985C131.603 260.916 133.139 263.98 133.479 268.255C133.139 263.98 134.17 260.712 136.102 258.445C138.034 256.179 141.098 254.643 145.372 254.302Z" fill="#E5786E"/>
<path d="M143.844 214.858L143.816 214.51C143.624 212.1 144.293 210.245 145.823 208.943C147.353 207.641 149.436 206.885 152.071 206.675C154.667 206.468 156.697 206.757 158.16 207.541C159.623 208.326 160.511 209.662 160.823 211.55L160.897 211.991L156.336 212.355L156.265 211.952C156.099 211.09 155.695 210.493 155.052 210.162C154.416 209.83 153.522 209.71 152.369 209.802C151.099 209.903 150.129 210.295 149.457 210.977C148.791 211.653 148.509 212.629 148.611 213.904L148.672 214.677C148.781 216.037 149.217 216.997 149.982 217.559C150.752 218.12 151.766 218.35 153.022 218.25C154.285 218.149 155.184 217.873 155.718 217.422C156.259 216.964 156.542 216.329 156.568 215.517L156.574 215.098L161.126 214.735L161.125 215.212C161.141 217.039 160.502 218.461 159.208 219.478C157.915 220.496 155.935 221.111 153.267 221.323C150.523 221.542 148.314 221.121 146.641 220.062C144.968 218.996 144.035 217.261 143.844 214.858Z" fill="#0C0C0C"/>
<path d="M174.608 222.141L174.385 219.348L165.175 220.082L165.398 222.875L161.175 223.212L160.674 216.93L178.33 215.523L178.831 221.805L174.608 222.141ZM162.363 206.146L175.573 205.094L176.649 218.594L172.165 218.952L171.367 208.94L166.419 209.334L166.529 212.544C166.576 213.785 166.551 214.773 166.454 215.507C166.357 216.241 166.153 216.899 165.843 217.481L161.678 217.813C162.077 217.126 162.337 216.402 162.458 215.64C162.579 214.879 162.618 213.864 162.575 212.597L162.363 206.146Z" fill="#0C0C0C"/>
<path d="M179.262 218.96L178.14 204.889L190.945 203.869L191.217 207.28L182.722 207.957L182.885 209.996L190.519 209.388L190.76 212.413L183.126 213.021L183.308 215.311L191.958 214.622L192.221 217.927L179.262 218.96Z" fill="#0C0C0C"/>
<path d="M193.898 203.633L207.041 202.586L208.163 216.657L203.63 217.018L202.787 206.436L197.994 206.818L198.129 211.689C198.189 213.578 197.955 215.075 197.427 216.18C196.905 217.285 195.772 217.907 194.026 218.046C193.594 218.08 193.238 218.086 192.957 218.063C192.677 218.04 192.433 217.998 192.227 217.936L191.911 213.964C192.057 214.005 192.195 214.029 192.325 214.038C192.462 214.041 192.597 214.036 192.733 214.025C193.3 213.98 193.679 213.772 193.869 213.4C194.06 213.022 194.146 212.396 194.128 211.522L193.898 203.633Z" fill="#0C0C0C"/>
<path d="M208.381 216.639L213.933 201.978L218.456 201.618L226.23 215.217L221.118 215.624L216.869 207.453C216.753 207.229 216.656 207.026 216.577 206.844C216.504 206.656 216.435 206.489 216.372 206.345L216.324 206.349C216.284 206.501 216.243 206.677 216.2 206.874C216.157 207.066 216.097 207.285 216.019 207.531L213.097 216.264L208.381 216.639ZM211.789 213.878L212.741 210.817L220.878 210.168L222.284 213.042L211.789 213.878Z" fill="#0C0C0C"/>
<path d="M226.371 215.206L225.25 201.135L229.783 200.774L230.18 205.76L236.085 205.29L235.687 200.303L240.21 199.943L241.331 214.014L236.809 214.374L236.374 208.923L230.47 209.394L230.904 214.845L226.371 215.206Z" fill="#0C0C0C"/>
<path d="M241.788 206.985L241.765 206.685C241.573 204.275 242.274 202.42 243.869 201.12C245.471 199.819 247.541 199.067 250.079 198.865C252.617 198.662 254.783 199.076 256.577 200.107C258.377 201.137 259.374 202.857 259.566 205.266L259.589 205.566C259.787 208.04 259.079 209.935 257.465 211.25C255.858 212.558 253.785 213.313 251.246 213.515C248.714 213.717 246.555 213.299 244.767 212.262C242.978 211.218 241.986 209.459 241.788 206.985ZM246.531 206.821C246.642 208.219 247.096 209.191 247.892 209.737C248.694 210.282 249.736 210.514 251.02 210.431C252.29 210.343 253.281 209.959 253.992 209.28C254.702 208.594 255.002 207.559 254.892 206.174L254.836 205.478C254.729 204.131 254.272 203.199 253.466 202.679C252.659 202.154 251.62 201.935 250.35 202.023C249.06 202.107 248.065 202.478 247.366 203.136C246.666 203.795 246.37 204.794 246.476 206.134L246.531 206.821Z" fill="#0C0C0C"/>
<path d="M147.052 243.519L145.93 229.448L154.328 228.779C156.029 228.643 157.336 228.854 158.249 229.41C159.162 229.966 159.665 230.827 159.758 231.993C159.821 232.779 159.682 233.439 159.342 233.971C159.008 234.504 158.529 234.912 157.903 235.195L157.906 235.233C158.788 235.319 159.496 235.619 160.03 236.134C160.563 236.643 160.868 237.37 160.943 238.318C161.049 239.645 160.608 240.698 159.619 241.477C158.637 242.249 157.318 242.701 155.662 242.833L147.052 243.519ZM151.237 240.268L154.445 240.012C155.051 239.964 155.527 239.799 155.875 239.519C156.222 239.238 156.373 238.815 156.328 238.248C156.289 237.758 156.076 237.412 155.691 237.209C155.304 237 154.808 236.92 154.203 236.968L150.994 237.224L151.237 240.268ZM150.807 234.875L153.851 234.633C154.418 234.588 154.841 234.437 155.119 234.182C155.396 233.92 155.516 233.56 155.48 233.102C155.444 232.645 155.268 232.315 154.954 232.113C154.639 231.912 154.199 231.833 153.632 231.878L150.588 232.121L150.807 234.875Z" fill="#0C0C0C"/>
<path d="M167.473 241.891L166.352 227.821L175.291 227.108C177.166 226.959 178.622 227.294 179.66 228.112C180.697 228.924 181.284 230.187 181.421 231.901C181.551 233.537 181.177 234.861 180.298 235.871C179.425 236.874 178.011 237.444 176.058 237.58L171.719 237.926L172.006 241.53L167.473 241.891ZM171.477 234.891L174.801 234.626C175.632 234.56 176.205 234.339 176.518 233.964C176.838 233.582 176.97 233.037 176.913 232.328C176.855 231.6 176.639 231.082 176.264 230.775C175.896 230.467 175.297 230.347 174.465 230.413L171.141 230.678L171.477 234.891Z" fill="#0C0C0C"/>
<path d="M181.499 233.781L181.475 233.482C181.283 231.072 181.984 229.217 183.579 227.916C185.181 226.615 187.251 225.864 189.789 225.661C192.328 225.459 194.494 225.873 196.288 226.904C198.088 227.934 199.084 229.654 199.276 232.063L199.3 232.363C199.497 234.837 198.789 236.731 197.176 238.046C195.568 239.354 193.495 240.11 190.957 240.312C188.425 240.514 186.265 240.096 184.477 239.058C182.689 238.014 181.696 236.255 181.499 233.781ZM186.241 233.617C186.353 235.015 186.806 235.987 187.602 236.533C188.404 237.079 189.447 237.31 190.73 237.228C192.001 237.139 192.991 236.756 193.702 236.077C194.413 235.391 194.713 234.356 194.602 232.97L194.547 232.275C194.44 230.928 193.983 229.995 193.176 229.476C192.369 228.95 191.331 228.732 190.06 228.82C188.77 228.903 187.776 229.274 187.076 229.933C186.376 230.592 186.08 231.591 186.187 232.931L186.241 233.617Z" fill="#0C0C0C"/>
<path d="M199.398 232.423L199.37 232.075C199.178 229.666 199.847 227.81 201.377 226.508C202.908 225.206 204.99 224.45 207.625 224.24C210.222 224.033 212.251 224.322 213.714 225.107C215.177 225.891 216.065 227.227 216.377 229.115L216.452 229.557L211.89 229.92L211.819 229.517C211.653 228.655 211.249 228.059 210.607 227.727C209.971 227.395 209.076 227.275 207.923 227.367C206.654 227.468 205.683 227.86 205.012 228.543C204.346 229.218 204.064 230.194 204.165 231.469L204.227 232.242C204.335 233.602 204.772 234.562 205.536 235.124C206.307 235.685 207.32 235.915 208.577 235.815C209.839 235.714 210.738 235.439 211.273 234.988C211.813 234.53 212.097 233.894 212.123 233.082L212.128 232.663L216.68 232.3L216.679 232.777C216.695 234.604 216.056 236.026 214.763 237.044C213.469 238.061 211.489 238.676 208.822 238.888C206.077 239.107 203.868 238.686 202.195 237.627C200.522 236.561 199.59 234.826 199.398 232.423Z" fill="#0C0C0C"/>
<path d="M216.383 231.069L216.356 230.722C216.164 228.312 216.833 226.456 218.363 225.154C219.893 223.852 221.975 223.096 224.611 222.886C227.207 222.679 229.237 222.968 230.7 223.753C232.163 224.538 233.05 225.874 233.363 227.762L233.437 228.203L228.876 228.567L228.805 228.164C228.639 227.302 228.234 226.705 227.592 226.374C226.956 226.042 226.062 225.922 224.908 226.014C223.639 226.115 222.669 226.507 221.997 227.189C221.331 227.865 221.049 228.84 221.151 230.116L221.212 230.889C221.321 232.248 221.757 233.209 222.521 233.77C223.292 234.331 224.306 234.562 225.562 234.462C226.825 234.361 227.724 234.085 228.258 233.634C228.799 233.176 229.082 232.541 229.108 231.728L229.114 231.31L233.665 230.947L233.664 231.423C233.68 233.251 233.042 234.673 231.748 235.69C230.455 236.707 228.474 237.322 225.807 237.535C223.062 237.753 220.854 237.333 219.181 236.273C217.507 235.207 216.575 233.473 216.383 231.069Z" fill="#0C0C0C"/>
<path d="M250.017 235.314L245.543 235.67L244.958 228.209C244.939 227.964 244.926 227.767 244.921 227.619C244.915 227.47 244.91 227.318 244.904 227.163L244.788 227.172C244.73 227.339 244.674 227.496 244.621 227.642C244.567 227.783 244.477 227.952 244.35 228.15L239.735 236.133L234.835 236.523L233.714 222.453L238.188 222.096L238.767 229.363C238.783 229.563 238.795 229.747 238.802 229.915C238.809 230.083 238.82 230.264 238.835 230.457L238.961 230.447C239.002 230.308 239.052 230.164 239.111 230.017C239.171 229.869 239.261 229.694 239.38 229.49L243.996 221.633L248.896 221.243L250.017 235.314Z" fill="#0C0C0C"/>
<path d="M267.138 233.949L262.664 234.306L262.079 226.844C262.059 226.6 262.047 226.403 262.041 226.254C262.036 226.106 262.03 225.954 262.025 225.798L261.909 225.808C261.851 225.974 261.795 226.131 261.742 226.278C261.688 226.419 261.598 226.588 261.471 226.786L256.856 234.769L251.956 235.159L250.835 221.088L255.309 220.732L255.888 227.999C255.904 228.199 255.915 228.383 255.922 228.551C255.929 228.719 255.94 228.899 255.956 229.093L256.081 229.083C256.122 228.943 256.172 228.8 256.232 228.652C256.292 228.505 256.381 228.329 256.501 228.125L261.117 220.269L266.017 219.879L267.138 233.949Z" fill="#0C0C0C"/>
<g filter="url(#filter1_d_3026_2740)">
<path d="M66.7549 176.532C63.9545 176.446 61.9435 173.804 62.6074 171.082L63.7071 166.574C64.2666 164.28 62.9189 161.952 60.6509 161.296L56.1931 160.006C53.5019 159.227 52.2112 156.167 53.5311 153.696L55.7176 149.603C56.8299 147.52 56.1034 144.931 54.0699 143.731L50.073 141.372C47.6601 139.948 47.1708 136.664 49.0638 134.599L52.1995 131.178C53.7949 129.437 53.7351 126.748 52.0639 125.081L48.7791 121.802C46.7961 119.823 47.1389 116.52 49.4861 114.991L53.3741 112.457C55.3522 111.168 55.9629 108.549 54.759 106.517L52.3927 102.525C50.9642 100.115 52.1176 97.0013 54.7714 96.1035L59.1675 94.6161C61.4041 93.8594 62.6469 91.4745 61.986 89.2078L60.6868 84.7525C59.9025 82.0629 61.7941 79.3338 64.5878 79.1241L69.2157 78.7767C71.5701 78.6 73.367 76.5991 73.2906 74.2393L73.1402 69.6009C73.0495 66.8007 75.5603 64.6277 78.3184 65.1194L82.8872 65.9339C85.2117 66.3482 87.4497 64.8571 87.9625 62.5523L88.9704 58.0222C89.5789 55.2875 92.5512 53.8072 95.1004 54.9694L99.3232 56.8944C101.472 57.8739 104.01 56.9861 105.08 54.8813L107.183 50.7442C108.452 48.2467 111.699 47.5521 113.879 49.3117L117.491 52.2265C119.328 53.7094 122.008 53.4809 123.567 51.7082L126.633 48.224C128.484 46.1207 131.801 46.2554 133.475 48.5019L136.248 52.2232C137.659 54.1165 140.312 54.5615 142.263 53.2325L146.099 50.6202C148.414 49.0431 151.594 49.9987 152.657 52.591L154.418 56.8849C155.313 59.0696 157.772 60.1602 159.992 59.3583L164.357 57.7819C166.992 56.8303 169.835 58.5467 170.219 61.3218L170.857 65.9187C171.181 68.2575 173.291 69.9252 175.641 69.7007L180.261 69.2594C183.05 68.993 185.376 71.3624 185.059 74.1459L184.533 78.7569C184.265 81.1028 185.894 83.2428 188.226 83.6099L192.811 84.3313C195.578 84.7669 197.242 87.6404 196.242 90.2575L194.586 94.5928C193.744 96.7985 194.789 99.2763 196.957 100.212L201.218 102.051C203.79 103.161 204.687 106.358 203.068 108.644L200.386 112.431C199.021 114.358 199.418 117.018 201.285 118.464L204.954 121.304C207.17 123.019 207.244 126.339 205.107 128.151L201.567 131.152C199.766 132.679 199.488 135.354 200.937 137.218L203.785 140.882C205.505 143.094 204.751 146.328 202.23 147.551L198.055 149.578C195.931 150.609 194.997 153.131 195.937 155.297L197.784 159.554C198.899 162.124 197.365 165.069 194.619 165.627L190.071 166.552C187.758 167.022 186.226 169.233 186.597 171.564L187.328 176.147C187.769 178.914 185.55 181.385 182.752 181.242L178.117 181.007C175.759 180.887 173.726 182.647 173.506 184.998L173.074 189.619C172.813 192.408 170.049 194.249 167.375 193.416L162.944 192.035C160.69 191.333 158.282 192.532 157.485 194.754L155.917 199.122C154.971 201.759 151.836 202.855 149.453 201.382L145.505 198.943C143.496 197.702 140.866 198.265 139.541 200.219L136.936 204.06C135.364 206.379 132.055 206.661 130.113 204.642L126.895 201.297C125.258 199.596 122.571 199.487 120.802 201.05L117.324 204.122C115.224 205.977 111.949 205.428 110.57 202.989L108.285 198.95C107.123 196.895 104.547 196.121 102.444 197.195L98.3115 199.306C95.8165 200.58 92.7813 199.233 92.0518 196.528L90.8434 192.048C90.2286 189.768 87.9265 188.378 85.6228 188.895L81.0947 189.912C78.3611 190.526 75.7562 188.467 75.7223 185.665L75.6662 181.025C75.6377 178.664 73.7536 176.745 71.3936 176.673L66.7549 176.532Z" fill="white"/>
<mask id="path-8-inside-1_3026_2740" fill="white">
<path d="M72.649 172.042C69.8487 171.957 67.8377 169.315 68.5016 166.593L69.2965 163.334C69.856 161.04 68.5083 158.712 66.2403 158.056L63.0179 157.123C60.3267 156.344 59.036 153.285 60.3559 150.814L61.9364 147.854C63.0488 145.772 62.3222 143.182 60.2887 141.983L57.3995 140.278C54.9866 138.854 54.4972 135.57 56.3903 133.504L58.657 131.031C60.2524 129.291 60.1926 126.602 58.5214 124.934L56.1469 122.564C54.1639 120.585 54.5067 117.282 56.8539 115.753L59.6645 113.921C61.6426 112.632 62.2533 110.013 61.0494 107.982L59.3388 105.096C57.9103 102.686 59.0637 99.5719 61.7175 98.6741L64.8954 97.5989C67.1319 96.8422 68.3748 94.4573 67.7138 92.1906L66.7747 88.9699C65.9904 86.2803 67.8819 83.5512 70.6757 83.3415L74.0211 83.0904C76.3755 82.9137 78.1724 80.9128 78.096 78.5529L77.9873 75.1999C77.8965 72.3998 80.4073 70.2268 83.1655 70.7185L86.4682 71.3072C88.7926 71.7216 91.0307 70.2304 91.5435 67.9257L92.2721 64.651C92.8805 61.9162 95.8529 60.4359 98.4021 61.5981L101.455 62.9897C103.603 63.9691 106.142 63.0814 107.211 60.9766L108.732 57.9859C110.001 55.4884 113.248 54.7938 115.428 56.5534L118.039 58.6604C119.876 60.1434 122.556 59.9149 124.115 58.1422L126.331 55.6236C128.182 53.5202 131.5 53.655 133.174 55.9015L135.178 58.5915C136.589 60.4848 139.241 60.9298 141.193 59.6008L143.966 57.7124C146.281 56.1353 149.461 57.0909 150.524 59.6832L151.797 62.7872C152.692 64.9719 155.151 66.0625 157.371 65.2605L160.527 64.121C163.162 63.1694 166.004 64.8858 166.389 67.6609L166.85 70.9839C167.174 73.3227 169.284 74.9904 171.634 74.7659L174.974 74.4469C177.763 74.1805 180.089 76.5499 179.771 79.3335L179.391 82.6666C179.124 85.0125 180.752 87.1525 183.085 87.5196L186.399 88.0411C189.166 88.4766 190.83 91.3502 189.83 93.9673L188.633 97.1012C187.791 99.3068 188.836 101.785 191.004 102.72L194.084 104.05C196.656 105.16 197.553 108.357 195.934 110.643L193.995 113.381C192.631 115.308 193.027 117.967 194.894 119.413L197.547 121.466C199.762 123.181 199.836 126.501 197.699 128.313L195.14 130.482C193.339 132.009 193.062 134.684 194.511 136.548L196.569 139.197C198.289 141.409 197.535 144.643 195.014 145.866L191.996 147.331C189.872 148.362 188.938 150.884 189.878 153.05L191.213 156.128C192.329 158.698 190.794 161.643 188.049 162.201L184.761 162.869C182.447 163.34 180.915 165.55 181.287 167.882L181.815 171.195C182.256 173.961 180.037 176.432 177.239 176.29L173.889 176.119C171.531 176 169.497 177.76 169.277 180.11L168.965 183.451C168.704 186.24 165.941 188.081 163.266 187.248L160.063 186.25C157.809 185.547 155.402 186.746 154.604 188.968L153.471 192.126C152.524 194.763 149.39 195.859 147.006 194.387L144.152 192.623C142.144 191.382 139.514 191.945 138.189 193.899L136.306 196.676C134.733 198.994 131.425 199.276 129.482 197.258L127.156 194.84C125.519 193.138 122.832 193.029 121.063 194.592L118.549 196.813C116.449 198.668 113.174 198.119 111.795 195.68L110.143 192.76C108.981 190.705 106.405 189.931 104.303 191.005L101.315 192.531C98.8199 193.805 95.7847 192.459 95.0553 189.754L94.1818 186.515C93.567 184.235 91.2648 182.845 88.9611 183.362L85.6878 184.097C82.9543 184.711 80.3493 182.652 80.3155 179.851L80.2749 176.496C80.2464 174.135 78.3623 172.216 76.0022 172.144L72.649 172.042Z"/>
</mask>
<path d="M72.649 172.042C69.8487 171.957 67.8377 169.315 68.5016 166.593L69.2965 163.334C69.856 161.04 68.5083 158.712 66.2403 158.056L63.0179 157.123C60.3267 156.344 59.036 153.285 60.3559 150.814L61.9364 147.854C63.0488 145.772 62.3222 143.182 60.2887 141.983L57.3995 140.278C54.9866 138.854 54.4972 135.57 56.3903 133.504L58.657 131.031C60.2524 129.291 60.1926 126.602 58.5214 124.934L56.1469 122.564C54.1639 120.585 54.5067 117.282 56.8539 115.753L59.6645 113.921C61.6426 112.632 62.2533 110.013 61.0494 107.982L59.3388 105.096C57.9103 102.686 59.0637 99.5719 61.7175 98.6741L64.8954 97.5989C67.1319 96.8422 68.3748 94.4573 67.7138 92.1906L66.7747 88.9699C65.9904 86.2803 67.8819 83.5512 70.6757 83.3415L74.0211 83.0904C76.3755 82.9137 78.1724 80.9128 78.096 78.5529L77.9873 75.1999C77.8965 72.3998 80.4073 70.2268 83.1655 70.7185L86.4682 71.3072C88.7926 71.7216 91.0307 70.2304 91.5435 67.9257L92.2721 64.651C92.8805 61.9162 95.8529 60.4359 98.4021 61.5981L101.455 62.9897C103.603 63.9691 106.142 63.0814 107.211 60.9766L108.732 57.9859C110.001 55.4884 113.248 54.7938 115.428 56.5534L118.039 58.6604C119.876 60.1434 122.556 59.9149 124.115 58.1422L126.331 55.6236C128.182 53.5202 131.5 53.655 133.174 55.9015L135.178 58.5915C136.589 60.4848 139.241 60.9298 141.193 59.6008L143.966 57.7124C146.281 56.1353 149.461 57.0909 150.524 59.6832L151.797 62.7872C152.692 64.9719 155.151 66.0625 157.371 65.2605L160.527 64.121C163.162 63.1694 166.004 64.8858 166.389 67.6609L166.85 70.9839C167.174 73.3227 169.284 74.9904 171.634 74.7659L174.974 74.4469C177.763 74.1805 180.089 76.5499 179.771 79.3335L179.391 82.6666C179.124 85.0125 180.752 87.1525 183.085 87.5196L186.399 88.0411C189.166 88.4766 190.83 91.3502 189.83 93.9673L188.633 97.1012C187.791 99.3068 188.836 101.785 191.004 102.72L194.084 104.05C196.656 105.16 197.553 108.357 195.934 110.643L193.995 113.381C192.631 115.308 193.027 117.967 194.894 119.413L197.547 121.466C199.762 123.181 199.836 126.501 197.699 128.313L195.14 130.482C193.339 132.009 193.062 134.684 194.511 136.548L196.569 139.197C198.289 141.409 197.535 144.643 195.014 145.866L191.996 147.331C189.872 148.362 188.938 150.884 189.878 153.05L191.213 156.128C192.329 158.698 190.794 161.643 188.049 162.201L184.761 162.869C182.447 163.34 180.915 165.55 181.287 167.882L181.815 171.195C182.256 173.961 180.037 176.432 177.239 176.29L173.889 176.119C171.531 176 169.497 177.76 169.277 180.11L168.965 183.451C168.704 186.24 165.941 188.081 163.266 187.248L160.063 186.25C157.809 185.547 155.402 186.746 154.604 188.968L153.471 192.126C152.524 194.763 149.39 195.859 147.006 194.387L144.152 192.623C142.144 191.382 139.514 191.945 138.189 193.899L136.306 196.676C134.733 198.994 131.425 199.276 129.482 197.258L127.156 194.84C125.519 193.138 122.832 193.029 121.063 194.592L118.549 196.813C116.449 198.668 113.174 198.119 111.795 195.68L110.143 192.76C108.981 190.705 106.405 189.931 104.303 191.005L101.315 192.531C98.8199 193.805 95.7847 192.459 95.0553 189.754L94.1818 186.515C93.567 184.235 91.2648 182.845 88.9611 183.362L85.6878 184.097C82.9543 184.711 80.3493 182.652 80.3155 179.851L80.2749 176.496C80.2464 174.135 78.3623 172.216 76.0022 172.144L72.649 172.042Z" fill="#71E69B" stroke="black" stroke-width="2" mask="url(#path-8-inside-1_3026_2740)"/>
<path d="M90.8334 79.0108C117.272 58.8887 155.017 64.0092 175.139 90.4477C195.261 116.886 190.141 154.631 163.702 174.753C137.264 194.875 99.5187 189.755 79.3966 163.316C59.2744 136.878 64.3949 99.133 90.8334 79.0108Z" fill="#71E69B" stroke="black"/>
<path d="M110.001 87.7591L102.632 84.9711L103.74 82.2671L113.475 85.9126L110.001 87.7591ZM99.6662 84.1971L101.969 82.9732L103.882 76.1314L106.966 74.4924L103.759 84.822L100.827 86.3805L99.6662 84.1971ZM101.968 92.0281L95.8019 80.4258L98.6945 78.8884L104.861 90.4907L101.968 92.0281Z" fill="#0C0C0C"/>
<path d="M111.833 86.4149L114.966 72.4202L118.081 71.845L126.031 83.7933L122.491 84.447L117.666 76.6568C117.509 76.4043 117.367 76.1461 117.238 75.8823C117.116 75.6173 117.006 75.3838 116.907 75.1818L116.819 75.1981C116.799 75.422 116.779 75.6825 116.761 75.9796C116.741 76.2708 116.703 76.5593 116.645 76.8452L114.885 85.8513L111.833 86.4149ZM114.196 83.2622L114.563 80.8269L121.263 79.5898L122.476 81.7335L114.196 83.2622Z" fill="#0C0C0C"/>
<path d="M130.197 74.7193C130.076 75.6803 130.207 76.3487 130.591 76.7243C130.981 77.0947 131.728 77.3493 132.832 77.4882C133.668 77.5933 134.394 77.6513 135.011 77.6622C135.634 77.6739 136.28 77.652 136.948 77.5965L136.649 79.9692C135.723 80.0528 134.919 80.0791 134.238 80.048C133.563 80.0176 132.852 79.9555 132.106 79.8617C130.035 79.6012 128.599 79.0599 127.799 78.2377C127 77.4096 126.705 76.1598 126.915 74.4885L127.375 70.8354L130.634 71.2453L130.197 74.7193ZM139.283 72.3331L137.644 85.3695L134.393 84.9607L136.033 71.9243L139.283 72.3331Z" fill="#0C0C0C"/>
<path d="M139.406 85.9252L144.728 73.9125L154.266 78.1384L153.264 80.3991L146.681 77.4818L145.573 79.9817L151.323 82.5297L150.358 84.7079L144.608 82.1599L143.354 84.9898L150.037 87.9509L149.042 90.195L139.406 85.9252Z" fill="#0C0C0C"/>
<path d="M153.448 85.3556L153.779 84.9734C155.255 83.2671 156.826 82.4304 158.491 82.4634C160.162 82.5002 161.786 83.2015 163.365 84.5672C164.803 85.8109 165.705 87.1083 166.072 88.4594C166.442 89.8059 166.121 91.1151 165.109 92.3869L164.938 92.5976L162.42 90.4192L162.614 90.1812C163.145 89.503 163.311 88.8512 163.112 88.2258C162.913 87.6005 162.452 86.9749 161.729 86.3491C160.928 85.6564 160.087 85.327 159.207 85.3609C158.335 85.3942 157.462 85.9159 156.588 86.926L155.785 87.8542C154.856 88.9281 154.448 89.8832 154.56 90.7196C154.671 91.556 155.132 92.3245 155.942 93.025C156.802 93.7689 157.545 94.1373 158.172 94.1304C158.803 94.1273 159.375 93.8663 159.887 93.3472L160.083 93.1347L162.602 95.3131L162.407 95.5383C161.377 96.6365 160.166 97.1315 158.772 97.0235C157.382 96.9109 155.936 96.2052 154.434 94.9064C152.837 93.525 151.899 92.0212 151.619 90.3951C151.343 88.7645 151.953 87.0847 153.448 85.3556Z" fill="#0C0C0C"/>
<path d="M168.297 93.1072L170.398 91.7857L176.991 102.265L174.89 103.587L172.468 99.7371L163.448 105.412L161.703 102.64L170.724 96.9645L168.297 93.1072Z" fill="#0C0C0C"/>
<path d="M165.89 109.397L178.532 105.817L180.152 111.539C180.604 113.137 180.695 114.453 180.425 115.486C180.155 116.519 179.432 117.202 178.257 117.534C177.562 117.731 176.951 117.726 176.424 117.519C175.903 117.316 175.462 116.972 175.1 116.487L175.065 116.497C175.063 117.241 174.875 117.879 174.5 118.41C174.127 118.947 173.526 119.333 172.699 119.568C171.495 119.908 170.451 119.688 169.567 118.907C168.69 118.129 168.03 116.957 167.586 115.388L165.89 109.397ZM168.899 111.912L169.649 114.56C169.87 115.341 170.172 115.878 170.555 116.17C170.944 116.46 171.436 116.521 172.032 116.352C172.594 116.193 172.964 115.888 173.143 115.437C173.321 114.986 173.3 114.37 173.079 113.589L172.329 110.941L168.899 111.912ZM174.274 110.39L174.95 112.778C175.165 113.536 175.445 114.051 175.79 114.322C176.143 114.597 176.569 114.664 177.067 114.523C177.582 114.377 177.909 114.097 178.048 113.683C178.189 113.274 178.152 112.69 177.937 111.932L177.261 109.544L174.274 110.39Z" fill="#0C0C0C"/>
<path d="M175.647 121.317L176.152 121.338C178.394 121.431 180.02 122.152 181.03 123.5C182.046 124.855 182.511 126.557 182.426 128.607C182.342 130.645 181.737 132.303 180.612 133.581C179.493 134.859 177.813 135.452 175.571 135.359L175.066 135.338C172.812 135.244 171.177 134.514 170.162 133.147C169.153 131.781 168.691 130.079 168.775 128.041C168.86 125.997 169.462 124.342 170.58 123.076C171.704 121.81 173.393 121.224 175.647 121.317ZM175.201 124.677C173.782 124.618 172.768 124.904 172.158 125.535C171.554 126.166 171.229 127.035 171.183 128.141C171.131 129.247 171.383 130.142 171.938 130.827C172.494 131.519 173.481 131.894 174.899 131.953L176.008 131.999C177.421 132.057 178.426 131.765 179.025 131.121C179.63 130.484 179.958 129.613 180.01 128.507C180.056 127.401 179.804 126.508 179.254 125.829C178.704 125.15 177.723 124.781 176.31 124.723L175.201 124.677Z" fill="#0C0C0C"/>
<path d="M164.814 145.914L175.779 153.154L170.413 161.28L168.372 159.932L171.933 154.54L163.009 148.648L164.814 145.914Z" fill="#0C0C0C"/>
<path d="M160.162 153.756L164.472 167.434L162.066 169.494L149.194 163.147L151.929 160.805L160.011 165.124C160.273 165.264 160.526 165.416 160.769 165.579C161.008 165.747 161.221 165.894 161.407 166.019L161.476 165.961C161.381 165.757 161.267 165.522 161.134 165.256C161.005 164.994 160.893 164.725 160.799 164.449L157.804 155.775L160.162 153.756ZM159.699 157.669L160.603 159.96L155.428 164.391L153.303 163.145L159.699 157.669Z" fill="#0C0C0C"/>
<path d="M148.983 163.068L154.251 175.104L148.58 177.586C146.976 178.288 145.595 178.486 144.436 178.179C143.274 177.879 142.393 177.044 141.792 175.671C141.204 174.326 141.183 173.108 141.729 172.015C142.277 170.928 143.37 170.049 145.008 169.378L147.661 168.217L145.982 164.381L148.983 163.068ZM148.598 170.358L146.317 171.357C145.451 171.735 144.908 172.16 144.688 172.631C144.464 173.11 144.498 173.683 144.79 174.35C145.081 175.017 145.477 175.425 145.976 175.574C146.469 175.726 147.148 175.613 148.014 175.234L150.295 174.235L148.598 170.358Z" fill="#0C0C0C"/>
<path d="M139.53 167.632L135.497 181.394L132.351 181.766L125.191 169.328L128.767 168.905L133.077 176.992C133.217 177.254 133.342 177.521 133.453 177.792C133.558 178.065 133.653 178.305 133.738 178.513L133.828 178.502C133.862 178.28 133.898 178.021 133.936 177.726C133.975 177.437 134.032 177.151 134.107 176.87L136.447 167.997L139.53 167.632ZM136.967 170.625L136.443 173.031L129.677 173.832L128.606 171.614L136.967 170.625Z" fill="#0C0C0C"/>
<path d="M125.241 169.31L122.64 182.189L119.438 181.543L120.452 176.518L114.437 175.304L113.423 180.328L110.221 179.681L112.821 166.802L116.024 167.449L114.929 172.871L120.944 174.086L122.039 168.663L125.241 169.31Z" fill="#0C0C0C"/>
<path d="M107.205 176.04L106.013 178.217L95.1538 172.27L96.3458 170.094L100.335 172.278L105.454 162.931L108.327 164.504L103.208 173.852L107.205 176.04Z" fill="#0C0C0C"/>
<path d="M92.6509 151.783L94.8617 154.064L89.3603 159.396C89.2091 159.543 89.0407 159.702 88.855 159.873C88.6652 160.041 88.4927 160.191 88.3374 160.325L88.4568 160.448C88.6793 160.366 88.8847 160.289 89.0731 160.215C89.2571 160.145 89.4835 160.089 89.7522 160.047L99.2079 158.548L101.576 160.991L92.1409 170.135L89.9364 167.861L95.4249 162.541C95.5718 162.399 95.7402 162.24 95.9301 162.064C96.1158 161.893 96.2841 161.738 96.4352 161.6L96.3096 161.47C96.1469 161.536 95.9543 161.609 95.7317 161.691C95.5049 161.777 95.2699 161.841 95.0267 161.884L85.584 163.37L83.2162 160.928L92.6509 151.783Z" fill="#0C0C0C"/>
<path d="M91.7094 150.4L79.9255 156.212L77.1873 150.66C76.4129 149.09 76.1527 147.719 76.4066 146.547C76.6525 145.373 77.4472 144.454 78.7907 143.792C80.1072 143.142 81.3237 143.066 82.4403 143.561C83.5514 144.06 84.4793 145.111 85.2239 146.716L86.5052 149.314L90.2605 147.462L91.7094 150.4ZM84.409 150.348L83.3073 148.114C82.8895 147.267 82.4404 146.744 81.9599 146.545C81.4713 146.343 80.9006 146.404 80.2477 146.726C79.5948 147.048 79.2052 147.461 79.0786 147.966C78.9495 148.466 79.0938 149.139 79.5115 149.986L80.6132 152.22L84.409 150.348Z" fill="#0C0C0C"/>
<path d="M83.668 138.874C83.6883 138.7 83.6968 138.51 83.6935 138.303C83.6834 138.091 83.6608 137.879 83.6259 137.665C83.5502 137.202 83.3992 136.818 83.1727 136.514C82.9393 136.204 82.582 135.958 82.101 135.774L82.1573 135.783L73.6422 142.935L73.0385 139.239L77.8291 135.539C78.1721 135.288 78.4234 135.11 78.583 135.005C78.7426 134.9 78.9199 134.791 79.1151 134.68L79.1064 134.627C78.891 134.577 78.6913 134.53 78.5075 134.487C78.3227 134.438 78.0347 134.354 77.6434 134.235L71.9286 132.443L71.3875 129.13L81.6598 132.738C83.1861 133.275 84.2827 133.812 84.9496 134.349C85.6164 134.886 86.0405 135.71 86.2219 136.82C86.2869 137.218 86.3239 137.538 86.333 137.78C86.3471 138.016 86.3375 138.237 86.3042 138.444L83.668 138.874Z" fill="#0C0C0C"/>
<path d="M84.5413 126.718L71.5013 125.107L72.7803 114.754L75.2342 115.057L74.3513 122.204L77.065 122.539L77.8362 116.297L80.2006 116.589L79.4294 122.831L82.5013 123.211L83.3975 115.956L85.8335 116.257L84.5413 126.718Z" fill="#0C0C0C"/>
<path d="M85.434 115.557L73.6825 109.68L75.3616 106.323L84.9141 106.751C85.1374 106.762 85.3768 106.774 85.6324 106.788C85.888 106.801 86.0979 106.825 86.262 106.86L86.2822 106.82C86.1557 106.71 86.0078 106.562 85.8383 106.376C85.6634 106.188 85.5074 106.009 85.3702 105.839L79.3293 98.3888L81.0609 94.9263L92.8124 100.803L91.3593 103.709L84.2406 100.149C84.063 100.06 83.8747 99.9591 83.6756 99.846C83.4739 99.725 83.2896 99.616 83.1228 99.5191L83.0905 99.5837C83.2519 99.7048 83.4227 99.8406 83.603 99.9913C83.7832 100.142 83.942 100.302 84.0792 100.472L89.5995 107.228L88.3725 109.681L79.6675 109.293C79.4495 109.285 79.2249 109.257 78.9935 109.209C78.7648 109.155 78.5563 109.101 78.368 109.047L78.3357 109.112C78.5186 109.19 78.715 109.274 78.9249 109.366C79.132 109.449 79.3244 109.535 79.502 109.624L86.6207 113.184L85.434 115.557Z" fill="#0C0C0C"/>
<circle cx="126.882" cy="126.466" r="38.5152" transform="rotate(-127.274 126.882 126.466)" fill="url(#paint0_linear_3026_2740)" stroke="black" stroke-width="0.764079"/>
<path d="M130.195 108.436C130.625 108.521 130.977 108.828 131.12 109.243L134.673 119.54L144.155 124.038C144.549 124.224 144.814 124.604 144.854 125.037C144.894 125.47 144.703 125.892 144.352 126.148L136.07 132.162L136.365 144.137C136.376 144.598 136.13 145.026 135.726 145.248C135.322 145.47 134.828 145.447 134.446 145.19L124.262 138.348L112.237 140.785C111.785 140.877 111.321 140.709 111.032 140.35C110.743 139.991 110.679 139.501 110.865 139.08L115.708 128.123L110.349 119.404C110.122 119.033 110.106 118.57 110.309 118.185C110.511 117.8 110.902 117.55 111.336 117.528L121.817 116.99L129.032 108.828C129.322 108.5 129.765 108.351 130.195 108.436Z" fill="white"/>
</g>
<defs>
<filter id="filter0_di_3026_2740" x="112.831" y="169.282" width="189.14" height="105.74" filterUnits="userSpaceOnUse" color-interpolation-filters="sRGB">
<feFlood flood-opacity="0" result="BackgroundImageFix"/>
<feColorMatrix in="SourceAlpha" type="matrix" values="0 0 0 0 0 0 0 0 0 0 0 0 0 0 0 0 0 0 127 0" result="hardAlpha"/>
<feOffset dx="1.89714" dy="2.84571"/>
<feComposite in2="hardAlpha" operator="out"/>
<feColorMatrix type="matrix" values="0 0 0 0 0.443137 0 0 0 0 0.901961 0 0 0 0 0.607843 0 0 0 1 0"/>
<feBlend mode="normal" in2="BackgroundImageFix" result="effect1_dropShadow_3026_2740"/>
<feBlend mode="normal" in="SourceGraphic" in2="effect1_dropShadow_3026_2740" result="shape"/>
<feColorMatrix in="SourceAlpha" type="matrix" values="0 0 0 0 0 0 0 0 0 0 0 0 0 0 0 0 0 0 127 0" result="hardAlpha"/>
<feOffset dx="3.1619" dy="4.42666"/>
<feComposite in2="hardAlpha" operator="arithmetic" k2="-1" k3="1"/>
<feColorMatrix type="matrix" values="0 0 0 0 0.443137 0 0 0 0 0.901961 0 0 0 0 0.607843 0 0 0 1 0"/>
<feBlend mode="normal" in2="shape" result="effect2_innerShadow_3026_2740"/>
</filter>
<filter id="filter1_d_3026_2740" x="38.8852" y="41.1996" width="176.378" height="176.465" filterUnits="userSpaceOnUse" color-interpolation-filters="sRGB">
<feFlood flood-opacity="0" result="BackgroundImageFix"/>
<feColorMatrix in="SourceAlpha" type="matrix" values="0 0 0 0 0 0 0 0 0 0 0 0 0 0 0 0 0 0 127 0" result="hardAlpha"/>
<feOffset dy="3.07134"/>
<feGaussianBlur stdDeviation="4.29988"/>
<feComposite in2="hardAlpha" operator="out"/>
<feColorMatrix type="matrix" values="0 0 0 0 0 0 0 0 0 0 0 0 0 0 0 0 0 0 0.25 0"/>
<feBlend mode="normal" in2="BackgroundImageFix" result="effect1_dropShadow_3026_2740"/>
<feBlend mode="normal" in="SourceGraphic" in2="effect1_dropShadow_3026_2740" result="shape"/>
</filter>
<linearGradient id="paint0_linear_3026_2740" x1="124.902" y1="39.0234" x2="126.882" y2="165.363" gradientUnits="userSpaceOnUse">
<stop stop-color="#65E5A5"/>
<stop offset="0.328555" stop-color="#07C8FA"/>
<stop offset="0.725" stop-color="#5A91D2"/>
<stop offset="1" stop-color="#EF7566"/>
</linearGradient>
</defs>
</svg>
