<svg width="187" height="32" viewBox="0 0 187 32" fill="none" xmlns="http://www.w3.org/2000/svg">
<path d="M103 30.6601V1.33987H123.641C127.521 1.33987 130.434 2.31318 132.381 4.25981C134.341 6.20644 135.321 8.98542 135.321 12.5968C135.321 16.0201 134.368 18.7454 132.461 20.7726C130.555 22.7864 127.554 23.7865 123.46 23.7731H113.049V30.6601H103ZM113.049 17.1881H120.882C122.493 17.1881 123.634 16.8122 124.306 16.0604C124.977 15.3086 125.312 14.2212 125.312 12.7981C125.312 11.308 124.977 10.2138 124.306 9.51571C123.634 8.80418 122.493 8.44842 120.882 8.44842H113.049V17.1881Z" fill="#0C0C0C"/>
<path d="M146.982 7.54223C146.982 9.86476 147.432 11.4288 148.331 12.2343C149.231 13.0398 150.788 13.4425 153.003 13.4425C154.802 13.4425 156.447 13.3821 157.937 13.2613C159.44 13.127 161.025 12.8921 162.689 12.5565V20.2087C160.904 20.6249 159.246 20.9068 157.715 21.0545C156.198 21.1888 154.48 21.2559 152.56 21.2559C146.881 21.2559 142.854 20.3161 140.478 18.4366C138.101 16.5571 136.92 13.5835 136.933 9.51571V1.33987H146.982V7.54223ZM168.227 1.33987V30.6601H158.158V1.33987H168.227Z" fill="#0C0C0C"/>
<path d="M49.2051 30.6601V1.33987L100.158 1.33987V8.91158H58.6496V12.6773H98.446V19.222H58.6496V23.3703H100.5V30.6601H49.2051Z" fill="#0C0C0C"/>
<path d="M2 30.6601V1.33987H13.8409L23.5874 17.8325C23.7351 18.0876 23.8492 18.2957 23.9298 18.4568C24.0103 18.6045 24.0775 18.7454 24.1312 18.8797H24.1916C24.2453 18.7454 24.3057 18.6045 24.3728 18.4568C24.4534 18.2957 24.5675 18.0876 24.7152 17.8325L34.4013 1.33987H46.4033V30.6601H36.5762V15.6375C36.5762 15.3556 36.5762 15.1274 36.5762 14.9528C36.5896 14.7783 36.603 14.5501 36.6164 14.2682H36.5158C36.3815 14.5769 36.2808 14.8052 36.2137 14.9528C36.16 15.0871 36.0526 15.2952 35.8915 15.5771L27.0712 30.6601H20.9696L12.0889 15.6375C11.9144 15.3556 11.8003 15.1542 11.7466 15.0334C11.7063 14.8991 11.619 14.6776 11.4848 14.3689H11.3841C11.3975 14.7045 11.4042 14.9461 11.4042 15.0938C11.4177 15.2281 11.4244 15.4227 11.4244 15.6778V30.6601H2Z" fill="#0C0C0C"/>
<path d="M184.643 30.2219H173.158V23.811C173.158 22.1671 173.497 20.9078 174.175 20.0329C174.849 19.1581 175.869 18.7206 177.236 18.7206C178.567 18.7206 179.587 19.1553 180.297 20.0246C181.007 20.8938 181.343 22.1643 181.307 23.836V26.703H184.643V30.2219ZM179.003 26.703V24.4044C179.003 23.6243 178.866 23.067 178.593 22.7327C178.314 22.3984 177.87 22.2312 177.26 22.2312C176.644 22.2312 176.205 22.3984 175.942 22.7327C175.674 23.067 175.54 23.6243 175.54 24.4044V26.703H179.003Z" fill="#0C0C0C"/>
<path d="M173 8.11306H174.349V7.41095C174.349 5.23218 174.746 3.61899 175.54 2.57139C176.329 1.5238 177.415 1 178.798 1C180.186 1 181.275 1.52101 182.064 2.56303C182.853 3.59949 183.247 5.22103 183.247 7.42767V8.11306H184.801V11.5317H183.247V12.2171C183.247 14.4293 182.853 16.0536 182.064 17.0901C181.27 18.1265 180.181 18.6447 178.798 18.6447C177.41 18.6447 176.321 18.1237 175.532 17.0817C174.743 16.0341 174.349 14.4181 174.349 12.2338V11.5317H173V8.11306ZM176.708 7.40259V8.11306H180.944V7.40259C180.944 6.30485 180.762 5.54701 180.399 5.12909C180.037 4.71116 179.511 4.5022 178.822 4.5022C178.149 4.5022 177.628 4.71116 177.26 5.12909C176.892 5.54701 176.708 6.30485 176.708 7.40259ZM176.708 12.2422C176.708 13.3399 176.892 14.0977 177.26 14.5157C177.623 14.9336 178.143 15.1425 178.822 15.1425C179.505 15.1425 180.031 14.9336 180.399 14.5157C180.762 14.0977 180.944 13.3399 180.944 12.2422V11.5317H176.708V12.2422Z" fill="#0C0C0C"/>
</svg>
